<svg width="185" height="35" viewBox="0 0 185 35" fill="none" xmlns="http://www.w3.org/2000/svg">
<path fill-rule="evenodd" clip-rule="evenodd" d="M7.16649 9.12423C10.0522 5.64031 14.6731 3.38322 19.8813 3.38322C25.1202 3.38322 29.7646 5.66694 32.6468 9.1858C32.5241 9.29903 32.4124 9.41638 32.3112 9.53358C31.7833 10.1472 31.3861 10.9376 31.0679 11.7403C30.427 13.3546 29.9382 15.4633 29.4856 17.4379L29.4454 17.6154C28.9938 19.5864 28.5741 21.4194 28.0666 22.7802C27.8386 23.3915 27.6224 23.8237 27.4306 24.1005C27.2306 23.8215 27.0036 23.384 26.7633 22.7639C26.2205 21.3641 25.764 19.4602 25.2801 17.4272L25.2644 17.3606V17.3605C24.7993 15.4078 24.306 13.3359 23.6909 11.7499C23.382 10.9533 23.0028 10.1707 22.5069 9.56277C22.0203 8.96614 21.2101 8.2928 20.0253 8.2928C18.8479 8.2928 18.034 8.95883 17.5403 9.54877C17.0348 10.1528 16.6408 10.9321 16.3161 11.7291C15.6623 13.3342 15.1279 15.4339 14.6304 17.4112L14.5791 17.6154C14.0865 19.5742 13.626 21.4054 13.1033 22.7688C12.9038 23.2894 12.7155 23.6855 12.545 23.9685C12.3785 23.6868 12.1949 23.2934 12.0008 22.7771C11.4993 21.4428 11.06 19.6628 10.5883 17.7511L10.5057 17.4165C10.0168 15.4379 9.48649 13.3346 8.82341 11.7244C8.49397 10.9244 8.09101 10.1412 7.56957 9.53436C7.45148 9.397 7.3173 9.25756 7.16649 9.12423ZM5.42001 11.7993C5.55744 12.0429 5.70284 12.3448 5.85316 12.7099C6.42712 14.1036 6.91334 16.0053 7.41405 18.0319L7.51152 18.4268C7.96739 20.2759 8.44162 22.1994 9.00021 23.6855C9.29731 24.4759 9.6561 25.25 10.1175 25.8517C10.5539 26.4207 11.3367 27.1557 12.5404 27.1557C13.7406 27.1557 14.5253 26.4243 14.9646 25.8578C15.43 25.2576 15.7946 24.4843 16.0977 23.6934C16.6787 22.1779 17.1735 20.2093 17.6469 18.3253V18.3252L17.7194 18.0372C18.2295 16.0094 18.7206 14.1039 19.2903 12.7051C19.5542 12.0571 19.8014 11.6056 20.0165 11.3255C20.2204 11.6032 20.4533 12.0475 20.7003 12.6844C21.2432 14.0843 21.6993 15.9882 22.1833 18.0212L22.1992 18.0878C22.6642 20.0405 23.1575 22.1125 23.7725 23.6983C24.0815 24.4953 24.4607 25.2778 24.9566 25.8856C25.4433 26.4824 26.2534 27.1557 27.438 27.1557C28.629 27.1557 29.4361 26.4762 29.9171 25.8741C30.4054 25.2633 30.7727 24.4781 31.0693 23.6824C31.6395 22.1541 32.0929 20.1709 32.5252 18.2844V18.2843L32.5871 18.0105C33.0526 15.9799 33.4993 14.0835 34.051 12.694C34.1705 12.3917 34.2882 12.134 34.4004 11.9175C35.2457 13.6564 35.7145 15.5766 35.7145 17.5949C35.7145 25.4437 28.6261 31.8067 19.8813 31.8067C11.1368 31.8067 4.04791 25.4437 4.04791 17.5949C4.04791 15.5307 4.53822 13.5692 5.42001 11.7993ZM19.8813 0.540894C9.38786 0.540894 0.881226 8.17623 0.881226 17.5949C0.881226 27.0135 9.38786 34.6488 19.8813 34.6488C30.375 34.6488 38.8812 27.0135 38.8812 17.5949C38.8812 8.17623 30.375 0.540894 19.8813 0.540894ZM20.2433 11.0876C20.2433 11.088 20.2396 11.0906 20.2322 11.0945C20.2396 11.0892 20.2433 11.0873 20.2433 11.0876ZM19.8056 11.0895C19.7983 11.0855 19.7946 11.0827 19.7946 11.0824C19.7946 11.082 19.7983 11.084 19.8056 11.0895ZM27.1972 24.3703C27.1972 24.3703 27.2007 24.3672 27.2075 24.3633C27.2007 24.3685 27.1972 24.3707 27.1972 24.3703ZM27.6576 24.3589C27.665 24.3628 27.6689 24.3654 27.6689 24.3659C27.6689 24.3663 27.665 24.3641 27.6576 24.3589ZM12.2159 24.3958C12.2158 24.3954 12.2204 24.3914 12.2295 24.3857C12.2205 24.3932 12.2159 24.3963 12.2159 24.3958ZM12.8572 24.3883C12.8662 24.3941 12.8708 24.398 12.8708 24.3985C12.8707 24.3989 12.8661 24.3963 12.8572 24.3883Z" fill="#81818B"/>
<path d="M52.5697 27.6266L47.6864 13.5822H51.9638L54.8602 23.6907L58.2276 13.5822H63.0101L66.3782 23.6907L69.3079 13.5822H73.5853L68.6681 27.6266H64.1891L60.6189 17.1216L57.0493 27.6266H52.5697Z" fill="#81818B"/>
<path d="M80.4179 27.6266C78.8508 27.6266 77.5648 27.4332 76.5607 27.0474C75.5572 26.6424 74.8101 26.112 74.3198 25.456C73.8302 24.8 73.5854 24.0767 73.5854 23.2858C73.5854 21.9547 74.2463 20.8744 75.5687 20.0448C76.8911 19.2153 78.8757 18.8005 81.5205 18.8005H86.1492V18.4533C86.1492 17.4694 85.7938 16.746 85.0837 16.2829C84.3736 15.8199 83.4916 15.5885 82.4389 15.5885C81.4834 15.5885 80.6506 15.7717 79.9405 16.1383C79.2304 16.4855 78.7894 17.0064 78.6181 17.7009H74.0258C74.1485 16.6592 74.5896 15.7524 75.3482 14.9807C76.1325 14.2091 77.1366 13.6207 78.3605 13.2156C79.5858 12.7912 80.9568 12.579 82.4754 12.579C85.0716 12.579 87.1162 13.0902 88.6106 14.1126C90.1043 15.1351 90.8514 16.582 90.8514 18.4533V27.2792H86.8465L86.4061 24.9643C85.8673 25.736 85.108 26.3723 84.1288 26.8742C83.1733 27.3756 81.9366 27.6266 80.4179 27.6266ZM81.4834 24.7326C82.8307 24.7326 83.8713 24.3852 84.6057 23.6909C85.365 22.9965 85.843 22.1378 86.0393 21.1155H82.0344C80.7855 21.1155 79.8919 21.2987 79.3525 21.6653C78.8143 22.0123 78.5446 22.4468 78.5446 22.9675C78.5446 23.527 78.8143 23.961 79.3525 24.2696C79.8919 24.5781 80.6014 24.7326 81.4834 24.7326Z" fill="#81818B"/>
<path d="M96.8943 27.6266L90.8514 13.5822H95.3004L99.4841 24.2006L103.668 13.5822H108.117L102.041 27.6266H96.8943Z" fill="#81818B"/>
<path d="M116.886 27.6266C115.181 27.6266 113.668 27.3176 112.348 26.7005C111.029 26.0829 109.994 25.2149 109.243 24.0959C108.492 22.9773 108.118 21.6846 108.118 20.2184C108.118 18.733 108.481 17.4115 109.209 16.254C109.96 15.0965 110.983 14.1995 112.28 13.5628C113.599 12.9069 115.146 12.579 116.921 12.579C118.581 12.579 120.049 12.8876 121.323 13.505C122.596 14.1223 123.586 14.9711 124.291 16.0514C125.019 17.1125 125.384 18.2989 125.384 19.6107C125.384 19.823 125.372 20.0448 125.349 20.2763C125.349 20.5078 125.337 20.7489 125.315 20.9997H112.451C112.542 22.1186 112.997 22.9965 113.816 23.6333C114.657 24.2696 115.67 24.588 116.853 24.588C117.739 24.588 118.479 24.4241 119.07 24.0959C119.684 23.7489 120.14 23.3051 120.435 22.7647H124.871C124.553 23.6716 124.018 24.5013 123.268 25.2537C122.539 25.9865 121.63 26.5652 120.537 26.9898C119.469 27.4141 118.251 27.6266 116.886 27.6266ZM116.921 15.5885C115.852 15.5885 114.907 15.8489 114.088 16.3697C113.27 16.8713 112.746 17.643 112.519 18.6848H120.947C120.879 17.7394 120.47 16.9871 119.719 16.4276C118.968 15.8682 118.036 15.5885 116.921 15.5885Z" fill="#81818B"/>
<path d="M127.302 27.6266V6.55994H132.098V27.6266H127.302Z" fill="#81818B"/>
<path d="M143.272 27.6266C141.472 27.6266 139.875 27.3176 138.482 26.7005C137.089 26.0829 135.997 25.2149 135.204 24.0959C134.412 22.9773 134.016 21.6846 134.016 20.2184C134.016 18.733 134.4 17.4115 135.168 16.254C135.961 15.0965 137.041 14.1995 138.41 13.5628C139.803 12.9069 141.435 12.579 143.308 12.579C145.061 12.579 146.61 12.8876 147.955 13.505C149.299 14.1223 150.344 14.9711 151.088 16.0514C151.857 17.1125 152.241 18.2989 152.241 19.6107C152.241 19.823 152.229 20.0448 152.205 20.2763C152.205 20.5078 152.192 20.7489 152.169 20.9997H138.59C138.686 22.1186 139.167 22.9965 140.031 23.6333C140.919 24.2696 141.988 24.588 143.237 24.588C144.172 24.588 144.953 24.4241 145.577 24.0959C146.226 23.7489 146.706 23.3051 147.018 22.7647H151.701C151.365 23.6716 150.8 24.5013 150.008 25.2537C149.239 25.9865 148.279 26.5652 147.126 26.9898C145.998 27.4141 144.713 27.6266 143.272 27.6266ZM143.308 15.5885C142.18 15.5885 141.183 15.8489 140.318 16.3697C139.454 16.8713 138.902 17.643 138.662 18.6848H147.558C147.486 17.7394 147.054 16.9871 146.262 16.4276C145.469 15.8682 144.485 15.5885 143.308 15.5885Z" fill="#81818B"/>
<path d="M160.297 27.6266C158.951 27.6266 157.768 27.4239 156.749 27.0189C155.729 26.5942 154.913 26.0155 154.302 25.2823C153.69 24.5495 153.323 23.7007 153.201 22.7362H157.146C157.269 23.2952 157.595 23.7779 158.125 24.1829C158.676 24.5687 159.379 24.7617 160.236 24.7617C161.092 24.7617 161.714 24.5978 162.101 24.2696C162.51 23.9418 162.713 23.5654 162.713 23.1412C162.713 22.5236 162.428 22.1088 161.857 21.8967C161.286 21.6653 160.49 21.4435 159.471 21.2312C158.819 21.0962 158.156 20.9322 157.483 20.7393C156.81 20.5464 156.188 20.3052 155.617 20.0159C155.066 19.7072 154.618 19.3214 154.271 18.8584C153.924 18.376 153.751 17.7877 153.751 17.0932C153.751 15.8199 154.282 14.7493 155.342 13.8812C156.422 13.013 157.931 12.579 159.869 12.579C161.663 12.579 163.091 12.9744 164.151 13.7654C165.232 14.5564 165.874 15.6463 166.078 17.0353H162.377C162.152 15.9743 161.306 15.4438 159.839 15.4438C159.104 15.4438 158.533 15.5788 158.125 15.8489C157.738 16.119 157.544 16.4565 157.544 16.8617C157.544 17.2861 157.84 17.6237 158.431 17.8745C159.023 18.1253 159.808 18.3568 160.786 18.569C161.846 18.8005 162.815 19.0609 163.692 19.3503C164.589 19.6204 165.303 20.0352 165.833 20.5946C166.364 21.1347 166.629 21.9159 166.629 22.9384C166.649 23.8261 166.404 24.6263 165.895 25.3404C165.385 26.0539 164.651 26.6134 163.692 27.0189C162.734 27.4239 161.602 27.6266 160.297 27.6266Z" fill="#81818B"/>
<path d="M177.191 27.6266C175.557 27.6266 174.12 27.4239 172.883 27.0189C171.645 26.5942 170.654 26.0155 169.911 25.2823C169.168 24.5495 168.722 23.7007 168.574 22.7362H173.366C173.514 23.2952 173.91 23.7779 174.554 24.1829C175.223 24.5687 176.076 24.7617 177.117 24.7617C178.157 24.7617 178.912 24.5978 179.382 24.2696C179.877 23.9418 180.126 23.5654 180.126 23.1412C180.126 22.5236 179.779 22.1088 179.085 21.8967C178.392 21.6653 177.426 21.4435 176.188 21.2312C175.396 21.0962 174.591 20.9322 173.774 20.7393C172.957 20.5464 172.202 20.3052 171.508 20.0159C170.84 19.7072 170.295 19.3214 169.874 18.8584C169.453 18.376 169.243 17.7877 169.243 17.0932C169.243 15.8199 169.887 14.7493 171.174 13.8812C172.487 13.013 174.319 12.579 176.671 12.579C178.85 12.579 180.583 12.9744 181.871 13.7654C183.183 14.5564 183.963 15.6463 184.211 17.0353H179.717C179.444 15.9743 178.417 15.4438 176.634 15.4438C175.742 15.4438 175.049 15.5788 174.554 15.8489C174.083 16.119 173.848 16.4565 173.848 16.8617C173.848 17.2861 174.207 17.6237 174.925 17.8745C175.643 18.1253 176.597 18.3568 177.785 18.569C179.073 18.8005 180.249 19.0609 181.314 19.3503C182.403 19.6204 183.27 20.0352 183.914 20.5946C184.557 21.1347 184.88 21.9159 184.88 22.9384C184.904 23.8261 184.607 24.6263 183.988 25.3404C183.369 26.0539 182.478 26.6134 181.314 27.0189C180.15 27.4239 178.776 27.6266 177.191 27.6266Z" fill="#81818B"/>
</svg>
